<svg id="Layer_1" data-name="Layer 1" xmlns="http://www.w3.org/2000/svg" viewBox="0 0 60.32 58.83">
  <title>github</title>
  <g>
    <path d="M34.39,3.67a30.16,30.16,0,0,0-9.53,58.78A1.52,1.52,0,0,0,26.91,61c0-.72,0-3.1,0-5.62-8.39,1.82-10.16-3.56-10.16-3.56-1.37-3.49-3.35-4.41-3.35-4.41-2.74-1.87.21-1.83,0.21-1.83a6.34,6.34,0,0,1,4.62,3.11C20.88,53.3,25.25,52,27,51.19a6.42,6.42,0,0,1,1.91-4c-6.7-.76-13.74-3.35-13.74-14.9a11.67,11.67,0,0,1,3.11-8.1,10.84,10.84,0,0,1,.29-8s2.53-.81,8.3,3.09a28.6,28.6,0,0,1,15.1,0c5.76-3.9,8.29-3.09,8.29-3.09a10.82,10.82,0,0,1,.3,8,11.65,11.65,0,0,1,3.1,8.1c0,11.58-7.06,14.13-13.77,14.88,1.08,0.94,2,2.77,2,5.58,0,4,0,7.28,0,8.28a1.51,1.51,0,0,0,2.07,1.45A30.16,30.16,0,0,0,34.39,3.67Z" transform="translate(-4.23 -3.67)" style="fill: #003098;fill-rule: evenodd"/>
    <path d="M15.65,47a0.46,0.46,0,0,1-.79-0.36,0.46,0.46,0,0,1,.79.36h0Zm-0.37-.28" transform="translate(-4.23 -3.67)" style="fill: #003098"/>
    <path d="M16.87,48.34a0.56,0.56,0,0,1-.7-0.77,0.47,0.47,0,0,1,.62.14,0.46,0.46,0,0,1,.09.63h0ZM16.58,48" transform="translate(-4.23 -3.67)" style="fill: #003098"/>
    <path d="M18.06,50.07a0.53,0.53,0,0,1-.67-0.26,0.52,0.52,0,0,1,0-.72,0.63,0.63,0,0,1,.67,1h0Zm0,0" transform="translate(-4.23 -3.67)" style="fill: #003098"/>
    <path d="M19.69,51.75a0.57,0.57,0,0,1-.78-0.12A0.48,0.48,0,1,1,19.52,51a0.57,0.57,0,0,1,.17.77h0Zm0,0" transform="translate(-4.23 -3.67)" style="fill: #003098"/>
    <path d="M21.94,52.72a0.7,0.7,0,0,1-1.25-.38,0.7,0.7,0,0,1,1.25.38h0Zm0,0" transform="translate(-4.23 -3.67)" style="fill: #003098"/>
    <path d="M24.41,52.91a0.69,0.69,0,0,1-1.3,0,0.58,0.58,0,0,1,.64-0.46,0.57,0.57,0,0,1,.65.44h0Zm0,0" transform="translate(-4.23 -3.67)" style="fill: #003098"/>
    <path d="M26.7,52.51A0.69,0.69,0,1,1,26,52.18a0.58,0.58,0,0,1,.72.33h0Zm0,0" transform="translate(-4.23 -3.67)" style="fill: #003098"/>
  </g>
</svg>
