<svg id="Layer_1" data-name="Layer 1" xmlns="http://www.w3.org/2000/svg" viewBox="0 0 60 60">
  <title>instagram</title>
  <path d="M43.27,26.58h0c0.5,0,1,0,1.51,0A1.22,1.22,0,0,0,46,25.35V22.46a1.23,1.23,0,0,0-1.24-1.24H41.83a1.23,1.23,0,0,0-1.24,1.24c0,1,0,1.91,0,2.86a1.4,1.4,0,0,0,.07.43,1.23,1.23,0,0,0,1.21.82h1.39ZM34,27.82a6.18,6.18,0,1,0,6.18,6.32A6.18,6.18,0,0,0,34,27.82Zm-12,3.3V31.2Q22,38,22,44.74A1.23,1.23,0,0,0,23.26,46H44.74A1.23,1.23,0,0,0,46,44.74Q46,38,46,31.21V31.12H43a9.55,9.55,0,0,1,.38,4,9.32,9.32,0,0,1-1.32,3.8,9.48,9.48,0,0,1-12.72,3.35,9.27,9.27,0,0,1-3.68-3.71A9.47,9.47,0,0,1,25,31.12H22ZM46.21,49.26l0.47-.08a3.3,3.3,0,0,0,2.51-2.56c0-.14,0-0.27.07-0.41V21.79c0-.13,0-0.27-0.06-0.4a3.3,3.3,0,0,0-2.78-2.62l-0.17,0H21.76l-0.44.08a3.29,3.29,0,0,0-2.55,2.77l0,0.17V46.24c0,0.15,0,.31.08,0.47a3.3,3.3,0,0,0,2.77,2.52l0.19,0H46.21ZM34,64A30,30,0,1,1,64,34,30,30,0,0,1,34,64Z" transform="translate(-4 -4)" style="fill: #003098"/>
</svg>
