<?xml version="1.0" encoding="utf-8"?>
<!-- Generator: Adobe Illustrator 19.2.0, SVG Export Plug-In . SVG Version: 6.00 Build 0)  -->
<svg version="1.1" id="Layer_1" xmlns="http://www.w3.org/2000/svg" xmlns:xlink="http://www.w3.org/1999/xlink" x="0px" y="0px"
	 viewBox="0 0 931.7 164" style="enable-background:new 0 0 931.7 164;" xml:space="preserve">
<style type="text/css">
	.st0{fill:#020021;}
</style>
<title>logo</title>
<g>
	<path class="st0" d="M82.6,2.5v102.6c0,5.3-1,10.6-3.1,15.5c-4,9.6-11.7,17.2-21.3,21.3c-4.9,2.1-10.1,3.1-15.5,3.1h-0.4
		c-5.3,0-10.6-1-15.5-3.1c-9.6-4-17.3-11.7-21.3-21.3c-2.1-4.9-3.1-10.1-3.1-15.5v-0.4H20v0.4c0,3,0.6,6,1.8,8.8
		c2.2,5.4,6.5,9.6,11.9,11.9c2.8,1.2,5.7,1.8,8.8,1.8h0.4c3,0,6-0.6,8.8-1.8c5.4-2.2,9.6-6.5,11.9-11.9c1.2-2.8,1.8-5.7,1.8-8.8V2.5
		H82.6z"/>
	<path class="st0" d="M188.9,20H94.2V2.5h94.7V20L188.9,20z M150.8,82.6H94.2V65.1h56.6L150.8,82.6L150.8,82.6z M188.9,145H94.2
		v-17.5h94.7V145z"/>
	<path class="st0" d="M295.8,2.5V20h-94.5V2.5H295.8L295.8,2.5z M218.6,65.1h39.1v17.5h-39.1V145h-17.3V37.3h17.3V65.1L218.6,65.1z"
		/>
	<path class="st0" d="M401.8,2.5V20h-94.5V2.5H401.8L401.8,2.5z M363.7,65.1v17.5h-39.1V145h-17.3V65.1H363.7L363.7,65.1z"/>
	<path class="st0" d="M449.3,110h-17.5V2.5h17.5V110z M526.5,145h-94.7v-17.5h94.7V145L526.5,145z"/>
	<path class="st0" d="M648.1,23.3c27.9,27.2,28.4,71.8,1.2,99.7c-0.4,0.4-0.8,0.8-1.2,1.2c-7,7.1-15.4,12.6-24.7,16.1v-19.2
		c4.2-2.2,8.1-5,11.6-8.3c3.4-3.3,6.4-7,8.9-11.1c9-14.8,10.4-33,3.6-49c-2.7-6.4-6.7-12.2-11.6-17.1c-4.9-4.9-10.7-8.8-17.1-11.5
		c-13.4-5.6-28.4-5.6-41.8,0c-20,8.4-32.9,28-32.8,49.7c-0.1,9.9,2.6,19.6,7.8,28c5,8.2,12.1,14.9,20.6,19.4v19.2
		c-18.3-7.1-33-21.3-40.5-39.4c-7.1-17.5-7.1-37.1,0-54.6C547,10.2,588.4-7.2,624.7,7.6C633.5,11.2,641.5,16.5,648.1,23.3z
		 M606.5,106.9v51.4h-16.9v-51.4H606.5L606.5,106.9z"/>
	<path class="st0" d="M793.2,2.5h17.5V145h-0.2l-63.3-70.6L683.7,145v-26l63.6-70.6l46,51.3L793.2,2.5L793.2,2.5z M701.1,2.5v71.2
		l-17.5,19.4V2.5H701.1z"/>
	<path class="st0" d="M824.8,2.5H845l21.2,36.6l-10.1,17.5L824.8,2.5z M886.2,145h-18.9V74l41.4-71.5h18.7L886.2,74V145L886.2,145z"
		/>
</g>
</svg>
